<svg width="48" height="48" viewBox="0 0 48 48" fill="none" xmlns="http://www.w3.org/2000/svg">
<path d="M38.67 21.66C38.67 30.45 25.26 37.66 16.47 37.66C7.68 37.66 6.83 30.49 6.83 21.66C6.83 12.83 18.49 6 27.28 6C36.07 6 38.67 12.87 38.67 21.66Z" fill="#D6EDF6"/>
<path d="M29.92 28.4801C31.065 28.4258 32.1452 27.9327 32.9364 27.1032C33.7275 26.2737 34.1689 25.1714 34.1689 24.0251C34.1689 22.8788 33.7275 21.7765 32.9364 20.9469C32.1452 20.1174 31.065 19.6243 29.92 19.5701" stroke="black" stroke-width="0.81" stroke-linejoin="round"/>
<path d="M29.98 35.47L10 26.87V21.13L29.98 12.53V35.47Z" stroke="black" stroke-width="0.81" stroke-linejoin="round"/>
<path d="M10 26.8701H8.28C7.51883 26.8701 6.78884 26.5678 6.25061 26.0295C5.71238 25.4913 5.41 24.7613 5.41 24.0001V24.0001C5.41 23.239 5.71238 22.509 6.25061 21.9707C6.78884 21.4325 7.51883 21.1301 8.28 21.1301H10" stroke="black" stroke-width="0.81" stroke-linejoin="round"/>
<path d="M22.87 32.0001L22.08 34.0001C21.9716 34.2852 21.8076 34.5459 21.5976 34.7671C21.3875 34.9882 21.1355 35.1654 20.8564 35.2882C20.5772 35.411 20.2763 35.4771 19.9714 35.4826C19.6664 35.4881 19.3634 35.4328 19.08 35.3201L13.72 33.2601C13.4349 33.1517 13.1742 32.9878 12.953 32.7777C12.7319 32.5676 12.5548 32.3157 12.4319 32.0365C12.3091 31.7573 12.243 31.4565 12.2375 31.1515C12.232 30.8465 12.2873 30.5435 12.4 30.2601L13.23 28.1201" stroke="black" stroke-width="0.81" stroke-linejoin="round"/>
<path d="M37.7 20.74C38.4562 21.7422 38.8636 22.9645 38.86 24.22C38.8558 25.3784 38.5078 26.5096 37.86 27.47" stroke="black" stroke-width="0.81" stroke-linejoin="round"/>
<path d="M40.59 18.3701C41.8689 20.0227 42.571 22.0487 42.5891 24.1383C42.6072 26.2278 41.9401 28.2657 40.69 29.9401" stroke="black" stroke-width="0.81" stroke-linejoin="round"/>
</svg>
